<?xml version="1.0" encoding="utf-8"?>
<!-- Generator: Adobe Illustrator 19.2.1, SVG Export Plug-In . SVG Version: 6.00 Build 0)  -->
<svg version="1.1" id="Layer_1" xmlns="http://www.w3.org/2000/svg" xmlns:xlink="http://www.w3.org/1999/xlink" x="0px" y="0px"
	 viewBox="0 0 221.1 205.1" style="enable-background:new 0 0 221.1 205.1;" xml:space="preserve">
<style type="text/css">
	.st0{enable-background:new    ;}
	.st1{clip-path:url(#SVGID_2_);}
	.st2{fill:#3A81D6;}
	.st3{fill:#B5B8BA;}
</style>
<g>
	<g>
		<g class="st0">
			<defs>
				<polygon id="SVGID_1_" class="st0" points="31.9,205.1 0,27.3 156.3,0 221.1,161.4 				"/>
			</defs>
			<clipPath id="SVGID_2_">
				<use xlink:href="#SVGID_1_"  style="overflow:visible;"/>
			</clipPath>
			<g class="st1">
				<polyline class="st2" points="174,61.3 163.3,63.4 160.9,72.5 169.4,79.5 180.3,77.3 182.5,68.2 174,61.3 				"/>
				<path class="st2" d="M169.4,79.5l-8.5-7.1l2.4-9.1l10.7-2.1l8.5,6.9l-2.2,9.2L169.4,79.5 M174.3,60.4l-11.8,2.3l-2.7,10l9.4,7.8
					l12-2.4l2.4-10.1L174.3,60.4"/>
				<polyline class="st2" points="181.4,80.1 170.5,82.4 168.1,91.9 176.9,99.3 188,97 190.2,87.3 181.4,80.1 				"/>
				<path class="st2" d="M176.9,99.3l-8.8-7.4l2.4-9.5l11-2.2l8.8,7.2L188,97L176.9,99.3 M181.7,79.2l-12,2.4L167,92.1l9.7,8.2
					l12.3-2.6l2.4-10.6L181.7,79.2"/>
				<polyline class="st2" points="189.2,99.9 178,102.3 175.6,112.3 184.7,120.1 196.1,117.6 198.3,107.5 189.2,99.9 				"/>
				<path class="st2" d="M184.7,120.1l-9.1-7.8l2.4-10l11.2-2.3l9.1,7.6l-2.1,10.1L184.7,120.1 M189.4,99l-12.3,2.6l-2.6,11l10,8.6
					l12.6-2.7l2.3-11.1L189.4,99"/>
				<polyline class="st2" points="128.1,50.6 117.3,52.7 114.4,61.5 122.4,68.5 133.4,66.3 136.2,57.4 128.1,50.6 				"/>
				<path class="st2" d="M122.4,68.5l-8.1-6.9l2.9-8.8l10.8-2l8,6.7l-2.7,9L122.4,68.5 M128.4,49.8L116.6,52l-3.2,9.7l8.8,7.6
					l12.1-2.4l3-9.8L128.4,49.8"/>
				<polyline class="st2" points="151,55.9 140.2,58 137.5,67 145.8,74 156.8,71.8 159.2,62.7 151,55.9 				"/>
				<path class="st2" d="M145.8,74l-8.3-7l2.7-9l10.8-2.1l8.3,6.8l-2.5,9.1L145.8,74 M151.2,55.1l-11.8,2.3l-3,9.8l9.1,7.7l12.1-2.4
					l2.7-10L151.2,55.1"/>
				<polyline class="st3" points="134.4,69 123.3,71.2 120.4,80.5 128.7,87.7 139.9,85.5 142.6,76.1 134.4,69 				"/>
				<path class="st3" d="M128.7,87.7l-8.3-7.2l2.9-9.3l11-2.2l8.3,7l-2.7,9.4L128.7,87.7 M134.6,68.1l-12.1,2.4l-3.2,10.2l9.1,8
					l12.3-2.5l3-10.3L134.6,68.1"/>
				<polyline class="st3" points="157.8,74.6 146.8,76.7 144.1,86.2 152.6,93.5 163.8,91.2 166.3,81.7 157.8,74.6 				"/>
				<path class="st3" d="M152.6,93.5l-8.5-7.3l2.7-9.4l11-2.2l8.5,7.1l-2.4,9.5L152.6,93.5 M158,73.7L145.9,76l-3,10.3l9.4,8.1
					l12.3-2.5l2.7-10.4L158,73.7"/>
				<polyline class="st2" points="140.9,88.3 129.6,90.6 126.7,100.4 135.3,107.9 146.7,105.6 149.4,95.7 140.9,88.3 				"/>
				<path class="st2" d="M135.3,107.9l-8.6-7.6l2.9-9.8l11.3-2.3l8.6,7.4l-2.7,9.9L135.3,107.9 M141.2,87.4l-12.4,2.5l-3.2,10.7
					l9.4,8.4l12.6-2.6l3-10.8L141.2,87.4"/>
				<polyline class="st3" points="172.4,114.6 160.9,117 158.3,127.4 167.4,135.5 179.1,132.9 181.5,122.4 172.4,114.6 				"/>
				<path class="st3" d="M167.4,135.5l-9.1-8.1l2.6-10.4l11.5-2.4l9.1,7.8l-2.4,10.5L167.4,135.5 M172.6,113.6l-12.6,2.7l-2.9,11.4
					l10,8.9l12.9-2.8l2.6-11.6L172.6,113.6"/>
				<polyline class="st2" points="164.9,94.1 153.7,96.4 151,106.3 159.8,114 171.3,111.6 173.7,101.6 164.9,94.1 				"/>
				<path class="st2" d="M159.8,114l-8.8-7.7l2.7-9.9l11.2-2.3l8.8,7.5l-2.4,10L159.8,114 M165.2,93.1l-12.3,2.5l-2.9,10.8l9.7,8.5
					l12.6-2.7l2.6-11L165.2,93.1"/>
				<polyline class="st2" points="147.8,108.6 136.2,111 133.3,121.2 142.1,129.2 153.9,126.7 156.6,116.3 147.8,108.6 				"/>
				<path class="st2" d="M142.1,129.2l-8.8-8l2.9-10.3l11.5-2.4l8.8,7.7l-2.7,10.4L142.1,129.2 M148,107.6l-12.6,2.6l-3.2,11.3
					l9.7,8.8l12.9-2.8l2.9-11.4L148,107.6"/>
				<polyline class="st2" points="78.3,23.1 67.7,25 64.3,33.2 71.7,39.7 82.5,37.7 85.7,29.4 78.3,23.1 				"/>
				<path class="st2" d="M71.7,39.7l-7.4-6.5l3.4-8.2l10.6-1.9l7.4,6.3l-3.2,8.3L71.7,39.7 M78.6,22.3L67,24.4l-3.7,9l8.1,7.1
					l11.9-2.2l3.5-9.2L78.6,22.3"/>
				<polyline class="st2" points="83.2,40.2 72.4,42.2 68.9,50.9 76.5,57.6 87.5,55.5 90.8,46.8 83.2,40.2 				"/>
				<path class="st2" d="M76.5,57.6l-7.6-6.7l3.4-8.6l10.8-2l7.6,6.6l-3.2,8.7L76.5,57.6 M83.5,39.4l-11.9,2.2l-3.8,9.5l8.3,7.4
					l12.1-2.3l3.5-9.6L83.5,39.4"/>
				<polyline class="st2" points="105.5,45.4 94.7,47.4 91.5,56.2 99.4,63 110.4,60.9 113.4,52 105.5,45.4 				"/>
				<path class="st2" d="M99.4,63l-7.8-6.8l3.2-8.7l10.8-2l7.8,6.6l-3,8.8L99.4,63 M105.8,44.6L94,46.8l-3.5,9.6l8.6,7.5l12.1-2.3
					l3.3-9.7L105.8,44.6"/>
				<polyline class="st3" points="88.3,58.2 77.2,60.3 73.8,69.3 81.6,76.4 92.9,74.2 96.1,65 88.3,58.2 				"/>
				<path class="st3" d="M81.6,76.4l-7.8-7.1l3.5-9.1l11.1-2.1l7.8,6.9l-3.2,9.2L81.6,76.4 M88.6,57.3l-12.1,2.3l-3.8,9.9l8.6,7.8
					l12.4-2.4l3.6-10.1L88.6,57.3"/>
				<polyline class="st2" points="111.2,63.6 100.2,65.7 97,74.9 105,82 116.3,79.8 119.3,70.5 111.2,63.6 				"/>
				<path class="st2" d="M105,82L97,74.9l3.2-9.2l11-2.1l8.1,6.9l-3,9.3L105,82 M111.5,62.7L99.4,65l-3.5,10.1l8.8,7.9l12.4-2.4
					l3.3-10.2L111.5,62.7"/>
				<polyline class="st3" points="93.7,77 82.4,79.2 78.9,88.7 86.9,96.1 98.5,93.8 101.7,84.2 93.7,77 				"/>
				<path class="st3" d="M86.9,96.1l-8.1-7.4l3.5-9.5L93.7,77l8,7.2l-3.3,9.6L86.9,96.1 M94,76.1l-12.4,2.4l-3.8,10.4l8.8,8.1
					l12.7-2.6l3.6-10.6L94,76.1"/>
				<polyline class="st3" points="117.1,82.6 105.9,84.9 102.6,94.5 111,102 122.5,99.6 125.4,89.9 117.1,82.6 				"/>
				<path class="st3" d="M111,102l-8.3-7.5l3.2-9.6l11.3-2.2l8.3,7.3l-3,9.7L111,102 M117.4,81.7l-12.4,2.5l-3.5,10.6l9.1,8.2
					l12.6-2.6l3.3-10.7L117.4,81.7"/>
				<polyline class="st2" points="99.3,96.7 87.7,99.1 84.2,109.1 92.5,116.8 104.3,114.4 107.6,104.3 99.3,96.7 				"/>
				<path class="st2" d="M92.5,116.8l-8.3-7.8l3.5-10l11.6-2.3l8.3,7.5l-3.3,10.1L92.5,116.8 M99.6,95.8l-12.7,2.6l-3.8,11l9.1,8.6
					l13-2.7l3.6-11.1L99.6,95.8"/>
				<polyline class="st3" points="129.9,123.6 118.1,126.1 114.9,136.8 123.8,145.1 135.8,142.4 138.8,131.6 129.9,123.6 				"/>
				<path class="st3" d="M123.8,145.1l-8.8-8.3l3.2-10.7l11.8-2.5l8.8,8l-3,10.8L123.8,145.1 M130.2,122.6l-12.9,2.7l-3.6,11.7
					l9.7,9.1l13.2-2.9l3.2-11.9L130.2,122.6"/>
				<polyline class="st3" points="123.4,102.6 111.8,105 108.6,115.1 117.2,123 129,120.5 131.9,110.3 123.4,102.6 				"/>
				<path class="st3" d="M117.2,123l-8.6-7.9l3.2-10.1l11.5-2.4l8.6,7.6l-3,10.2L117.2,123 M123.7,101.6l-12.7,2.6l-3.5,11.1
					l9.4,8.7l12.9-2.7l3.3-11.3L123.7,101.6"/>
				<polyline class="st2" points="105.2,117.5 93.4,119.9 89.8,130.4 98.4,138.6 110.5,136 113.7,125.4 105.2,117.5 				"/>
				<path class="st2" d="M98.4,138.6l-8.6-8.2l3.5-10.5l11.8-2.5l8.6,7.9l-3.3,10.6L98.4,138.6 M105.5,116.5l-13,2.7l-3.9,11.5
					l9.4,9l13.3-2.9l3.6-11.7L105.5,116.5"/>
				<polyline class="st2" points="56.7,18.2 46.1,20 42.5,28.2 49.6,34.5 60.4,32.6 63.9,24.4 56.7,18.2 				"/>
				<path class="st2" d="M49.6,34.5l-7.2-6.4l3.6-8.1l10.6-1.9l7.2,6.2l-3.4,8.2L49.6,34.5 M57,17.4l-11.6,2l-4,8.9l7.9,7l11.9-2.1
					l3.8-9L57,17.4"/>
				<polyline class="st3" points="39.2,30 28.3,32 24.4,40.4 31.6,47 42.6,45 46.3,36.4 39.2,30 				"/>
				<path class="st3" d="M31.6,47l-7.1-6.6l3.9-8.4L39.2,30l7.2,6.4L42.6,45L31.6,47 M39.6,29.2l-11.9,2.1l-4.3,9.2l7.8,7.2
					l12.2-2.2l4.1-9.4L39.6,29.2"/>
				<polyline class="st2" points="17.5,25 6.7,26.9 2.5,35.2 9.5,41.8 20.5,39.8 24.5,31.3 17.5,25 				"/>
				<path class="st2" d="M9.5,41.8l-6.9-6.5l4.1-8.3L17.5,25l6.9,6.3l-3.9,8.4L9.5,41.8 M17.9,24.2L6,26.3l-4.5,9.1l7.6,7.2
					l12.2-2.2l4.3-9.2L17.9,24.2"/>
				<polyline class="st2" points="61.1,35.1 50.2,37.1 46.6,45.6 53.9,52.3 65,50.2 68.4,41.6 61.1,35.1 				"/>
				<path class="st2" d="M53.9,52.3l-7.4-6.7l3.7-8.5l10.8-2l7.4,6.5L65,50.2L53.9,52.3 M61.4,34.3l-11.9,2.1l-4,9.4l8.1,7.3
					l12.1-2.3l3.8-9.5L61.4,34.3"/>
				<polyline class="st3" points="43.2,47.6 32.1,49.6 28.2,58.4 35.5,65.3 46.8,63.2 50.6,54.3 43.2,47.6 				"/>
				<path class="st3" d="M35.5,65.3l-7.3-6.9l3.9-8.8l11.1-2l7.4,6.7l-3.7,8.9L35.5,65.3 M43.6,46.7l-12.2,2.2l-4.3,9.7l8.1,7.6
					l12.4-2.3l4.1-9.8L43.6,46.7"/>
				<polyline class="st2" points="21.1,42.3 9.9,44.3 5.8,53.1 12.9,59.9 24.2,57.8 28.2,49 21.1,42.3 				"/>
				<path class="st2" d="M12.9,59.9l-7.1-6.8l4.2-8.7l11.1-2l7.1,6.6l-4,8.8L12.9,59.9 M21.5,41.5L9.3,43.7l-4.6,9.6l7.8,7.5
					l12.4-2.3l4.4-9.7L21.5,41.5"/>
				<polyline class="st3" points="65.6,52.8 54.6,54.9 50.9,63.9 58.4,70.8 69.7,68.7 73.2,59.6 65.6,52.8 				"/>
				<path class="st3" d="M58.4,70.8l-7.6-7l3.7-8.9l11.1-2.1l7.6,6.8l-3.5,9L58.4,70.8 M66,52l-12.2,2.3l-4.1,9.8l8.3,7.7l12.4-2.4
					l3.8-9.9L66,52"/>
				<polyline class="st3" points="47.5,65.9 36.1,68.1 32.1,77.3 39.7,84.6 51.3,82.3 55,72.9 47.5,65.9 				"/>
				<path class="st3" d="M39.7,84.6l-7.6-7.2l4-9.3l11.3-2.1l7.6,7l-3.8,9.4L39.7,84.6 M47.8,65l-12.4,2.4L31,77.5l8.3,7.9L52,83
					l4.1-10.3L47.8,65"/>
				<polyline class="st2" points="24.8,60.5 13.4,62.6 9.1,71.7 16.5,78.9 28,76.6 32.1,67.4 24.8,60.5 				"/>
				<path class="st2" d="M16.5,78.9l-7.3-7.1l4.2-9.2l11.4-2.1l7.3,6.9l-4,9.2L16.5,78.9 M25.1,59.6l-12.5,2.3L8,71.9l8,7.9
					l12.7-2.4l4.4-10.2L25.1,59.6"/>
				<polyline class="st2" points="70.4,71.4 59.1,73.6 55.4,83 63.2,90.3 74.7,88 78.2,78.5 70.4,71.4 				"/>
				<path class="st2" d="M63.2,90.3L55.4,83l3.7-9.4l11.3-2.2l7.8,7.1L74.7,88L63.2,90.3 M70.8,70.5l-12.4,2.4l-4.1,10.3l8.6,8
					l12.7-2.5l3.9-10.4L70.8,70.5"/>
				<polyline class="st3" points="51.9,85.2 40.3,87.4 36.3,97.2 44,104.7 55.9,102.4 59.7,92.5 51.9,85.2 				"/>
				<path class="st3" d="M44,104.7l-7.8-7.6l4-9.7l11.6-2.3l7.8,7.4l-3.8,9.8L44,104.7 M52.3,84.2l-12.7,2.5l-4.4,10.7l8.5,8.3
					l13-2.6l4.2-10.8L52.3,84.2"/>
				<polyline class="st2" points="28.6,79.5 17,81.7 12.7,91.3 20.2,98.8 32.1,96.5 36.2,86.7 28.6,79.5 				"/>
				<path class="st2" d="M20.2,98.8l-7.5-7.5l4.3-9.6l11.6-2.2l7.5,7.3l-4.1,9.7L20.2,98.8 M29,78.5L16.3,81l-4.7,10.5l8.3,8.2
					l13-2.6l4.5-10.7L29,78.5"/>
				<polyline class="st3" points="75.5,90.9 63.9,93.2 60.1,103.1 68.1,110.8 80,108.3 83.5,98.4 75.5,90.9 				"/>
				<path class="st3" d="M68.1,110.8l-8-7.7l3.8-9.9l11.6-2.3l8,7.5l-3.5,10L68.1,110.8 M75.8,90l-12.7,2.5L59,103.3l8.8,8.4l13-2.7
					l3.9-11L75.8,90"/>
				<polyline class="st2" points="56.6,105.4 44.7,107.8 40.6,118 48.6,126 60.7,123.4 64.6,113.1 56.6,105.4 				"/>
				<path class="st2" d="M48.6,126l-8-8l4.1-10.2l11.9-2.4l8,7.7l-3.9,10.4L48.6,126 M57,104.4l-13,2.6l-4.5,11.2l8.8,8.8l13.3-2.8
					l4.2-11.4L57,104.4"/>
				<polyline class="st2" points="32.7,99.4 20.8,101.8 16.4,111.9 24.2,119.7 36.3,117.3 40.4,107 32.7,99.4 				"/>
				<path class="st2" d="M24.2,119.7l-7.7-7.9l4.4-10.1l11.9-2.4l7.8,7.6l-4.1,10.2L24.2,119.7 M33.1,98.4L20,101l-4.8,11.1l8.5,8.6
					l13.3-2.7l4.5-11.2L33.1,98.4"/>
				<polyline class="st2" points="80.7,111.4 68.9,113.8 65.1,124.2 73.4,132.3 85.5,129.7 89,119.2 80.7,111.4 				"/>
				<path class="st2" d="M73.4,132.3l-8.3-8.1l3.8-10.4l11.9-2.4l8.3,7.8l-3.6,10.5L73.4,132.3 M81.1,110.4l-13,2.7l-4.2,11.4
					l9.1,8.9l13.3-2.8l3.9-11.5L81.1,110.4"/>
				<polyline class="st2" points="197.3,120.7 185.9,123.2 183.5,133.7 192.9,141.9 204.6,139.3 206.7,128.6 197.3,120.7 				"/>
				<path class="st2" d="M192.9,141.9l-9.4-8.2l2.3-10.5l11.5-2.5l9.4,7.9l-2.1,10.7L192.9,141.9 M197.6,119.7l-12.6,2.7l-2.6,11.6
					l10.3,9l12.9-2.9l2.3-11.7L197.6,119.7"/>
				<polyline class="st3" points="155,129.8 143.2,132.4 140.3,143.2 149.4,151.6 161.4,148.9 164.1,138 155,129.8 				"/>
				<path class="st3" d="M149.4,151.6l-9.1-8.4l2.9-10.8l11.8-2.5l9.1,8.1l-2.7,10.9L149.4,151.6 M155.2,128.8l-12.9,2.8l-3.2,11.8
					l10,9.2l13.2-2.9l2.9-12L155.2,128.8"/>
				<polyline class="st2" points="180.3,136.1 168.5,138.7 165.9,149.7 175.4,158.2 187.4,155.5 189.7,144.4 180.3,136.1 				"/>
				<path class="st2" d="M175.4,158.2l-9.4-8.5l2.6-10.9l11.8-2.6l9.4,8.2l-2.3,11.1L175.4,158.2 M180.5,135.1l-12.9,2.8l-2.9,12
					l10.4,9.3l13.2-3l2.5-12.2L180.5,135.1"/>
				<polyline class="st2" points="162.5,152.2 150.5,154.9 147.6,166.3 157,175.1 169.3,172.3 172,160.8 162.5,152.2 				"/>
				<path class="st2" d="M157,175.1l-9.4-8.8l2.9-11.4l12.1-2.7l9.4,8.5l-2.6,11.5L157,175.1 M162.8,151.1l-13.2,3l-3.2,12.5
					l10.4,9.7l13.5-3.1l2.9-12.7L162.8,151.1"/>
				<polyline class="st2" points="111.4,139.3 99.3,141.9 95.8,152.9 104.6,161.5 117,158.8 120.2,147.6 111.4,139.3 				"/>
				<path class="st2" d="M104.6,161.5l-8.9-8.6l3.5-11.1l12.1-2.6l8.8,8.3l-3.3,11.2L104.6,161.5 M111.7,138.2l-13.3,2.9l-3.9,12.1
					l9.7,9.5l13.6-3l3.6-12.3L111.7,138.2"/>
				<polyline class="st2" points="136.8,145.7 124.7,148.4 121.5,159.6 130.7,168.3 143,165.5 146,154.1 136.8,145.7 				"/>
				<path class="st2" d="M130.7,168.3l-9.1-8.7l3.2-11.2l12.1-2.7l9.1,8.4l-3,11.4L130.7,168.3 M137.1,144.6l-13.3,2.9l-3.6,12.3
					l10,9.6l13.6-3.1l3.2-12.5L137.1,144.6"/>
			</g>
		</g>
	</g>
	<g>
		<path class="st2" d="M98.8,13.4c0.7,0,1.4,0.1,2.1,0.2s1.3,0.3,1.9,0.4c0.6,0.2,1.1,0.4,1.6,0.6c0.5,0.2,0.9,0.5,1.2,0.7l-1.7,3.3
			c-0.2-0.1-0.5-0.3-0.9-0.5c-0.3-0.2-0.7-0.4-1.1-0.6c-0.4-0.2-0.8-0.3-1.2-0.4c-0.4-0.1-0.8-0.2-1.2-0.2c-0.7,0-1.2,0.1-1.6,0.4
			c-0.3,0.3-0.5,0.7-0.5,1.1c0,0.3,0.1,0.6,0.2,0.9c0.1,0.3,0.3,0.5,0.6,0.8c0.3,0.3,0.6,0.5,1.1,0.7c0.4,0.2,1,0.5,1.6,0.7
			c0.8,0.3,1.5,0.7,2.1,1c0.6,0.4,1.1,0.8,1.5,1.2c0.4,0.5,0.7,1,0.9,1.6c0.2,0.6,0.3,1.2,0.3,2c0,0.9-0.2,1.8-0.5,2.6
			c-0.3,0.8-0.8,1.5-1.4,2.1c-0.6,0.6-1.4,1.1-2.2,1.4c-0.9,0.3-1.9,0.5-3,0.5c-0.8,0-1.5-0.1-2.2-0.2c-0.7-0.1-1.4-0.3-2-0.5
			c-0.6-0.2-1.1-0.5-1.6-0.7c-0.5-0.2-0.9-0.5-1.3-0.7l1.6-3.5c0.1,0.1,0.4,0.3,0.8,0.5c0.4,0.2,0.8,0.5,1.3,0.7
			c0.5,0.2,1,0.4,1.5,0.6s0.9,0.3,1.3,0.3c0.8,0,1.5-0.2,1.8-0.6c0.4-0.4,0.6-0.9,0.6-1.7s-0.2-1.3-0.7-1.6
			c-0.5-0.4-1.2-0.7-2.1-1.1c-0.9-0.4-1.7-0.7-2.3-1.1C94.6,24,94,23.5,93.5,23c-0.5-0.5-0.8-1.1-1.1-1.7c-0.3-0.6-0.4-1.3-0.4-2.2
			c0-0.9,0.2-1.7,0.6-2.4c0.4-0.7,0.9-1.3,1.5-1.8c0.6-0.5,1.3-0.9,2.1-1.2S97.9,13.4,98.8,13.4z"/>
		<path class="st2" d="M120.7,27c0,0.6,0.1,1.2,0.2,1.8c0.1,0.5,0.2,1.1,0.4,1.6c0.1,0.5,0.3,1.1,0.4,1.6s0.2,1.2,0.2,1.8
			c0,2.1-0.6,3.7-1.8,4.8c-1.2,1.1-2.8,1.7-4.8,1.7c-0.9,0-1.9-0.1-2.9-0.3c-1-0.2-2-0.5-2.9-0.9l1.1-3.7c0.9,0.3,1.6,0.5,2.3,0.7
			c0.7,0.2,1.4,0.3,2.1,0.3c0.8,0,1.4-0.2,1.9-0.7c0.5-0.5,0.7-1.1,0.7-2c0-0.4,0-0.8-0.1-1.1c-0.1-0.3-0.2-0.7-0.3-1.1
			c-0.5,0.9-1.2,1.5-2.1,1.9c-0.9,0.4-1.9,0.6-2.9,0.6c-0.8,0-1.4-0.1-2-0.4c-0.5-0.2-1-0.6-1.3-1c-0.3-0.4-0.6-1-0.7-1.6
			c-0.2-0.6-0.2-1.4-0.2-2.2v-10h4.8v9.4c0,0.7,0.1,1.3,0.3,1.7c0.2,0.4,0.5,0.6,0.9,0.6c0.3,0,0.5-0.1,0.8-0.3
			c0.3-0.2,0.5-0.5,0.7-0.8c0.2-0.3,0.4-0.8,0.5-1.3c0.1-0.5,0.2-1.1,0.2-1.7v-7.7h4.8L120.7,27z"/>
		<path class="st2" d="M136.2,13.6h4.9v20.3H137l-5.8-8.7c-0.1-0.2-0.3-0.4-0.5-0.8c-0.2-0.3-0.4-0.7-0.7-1.1s-0.4-0.7-0.7-1.1
			c-0.2-0.3-0.4-0.6-0.5-0.9c0,0.3,0,0.7,0.1,1.1c0,0.4,0.1,0.9,0.1,1.3c0,0.4,0.1,0.9,0.1,1.3c0,0.4,0,0.8,0,1l0.1,7.8h-4.9V13.6h4
			l5.8,8.7c0.2,0.3,0.4,0.6,0.6,0.9c0.2,0.3,0.4,0.7,0.7,1.1s0.4,0.7,0.6,1c0.2,0.3,0.4,0.6,0.5,0.9c0-0.3,0-0.7-0.1-1.1
			c0-0.4,0-0.9-0.1-1.3s-0.1-0.9-0.1-1.3c0-0.4,0-0.8,0-1.1L136.2,13.6z"/>
		<path class="st2" d="M144.9,13.6c0.1,0,0.5,0,1,0c0.5,0,1.1,0,1.8,0c0.7,0,1.3,0,2.1,0c0.7,0,1.3,0,1.9,0c1.7,0,3.2,0.3,4.4,0.8
			c1.2,0.5,2.2,1.2,3,2.1c0.8,0.9,1.4,2,1.8,3.3c0.4,1.3,0.6,2.7,0.6,4.2c0,1.6-0.2,3-0.6,4.2c-0.4,1.2-1,2.3-1.8,3.2
			s-1.8,1.5-3.1,2c-1.2,0.5-2.7,0.7-4.4,0.7c-0.6,0-1.1,0-1.6,0c-0.5,0-1,0-1.5,0s-1,0-1.6,0c-0.6,0-1.2,0-1.9,0V13.6z M150.6,17.1
			c-0.2,0-0.4,0-0.7,0v13.4c0.3,0,0.5,0,0.7,0c0.2,0,0.5,0,0.8,0c0.9,0,1.6-0.1,2.2-0.4c0.6-0.3,1.1-0.7,1.4-1.3
			c0.4-0.6,0.6-1.2,0.8-2.1c0.2-0.8,0.2-1.7,0.2-2.7c0-4.6-1.5-6.9-4.6-6.9C151,17,150.8,17,150.6,17.1z"/>
		<path class="st2" d="M170.4,13.4c0.7,0,1.4,0.1,2.1,0.2s1.3,0.3,1.9,0.4c0.6,0.2,1.1,0.4,1.6,0.6c0.5,0.2,0.9,0.5,1.2,0.7
			l-1.7,3.3c-0.2-0.1-0.5-0.3-0.9-0.5c-0.3-0.2-0.7-0.4-1.1-0.6c-0.4-0.2-0.8-0.3-1.2-0.4c-0.4-0.1-0.8-0.2-1.2-0.2
			c-0.7,0-1.2,0.1-1.6,0.4c-0.3,0.3-0.5,0.7-0.5,1.1c0,0.3,0.1,0.6,0.2,0.9c0.1,0.3,0.3,0.5,0.6,0.8c0.3,0.3,0.6,0.5,1.1,0.7
			c0.4,0.2,1,0.5,1.6,0.7c0.8,0.3,1.5,0.7,2.1,1c0.6,0.4,1.1,0.8,1.5,1.2c0.4,0.5,0.7,1,0.9,1.6c0.2,0.6,0.3,1.2,0.3,2
			c0,0.9-0.2,1.8-0.5,2.6c-0.3,0.8-0.8,1.5-1.4,2.1c-0.6,0.6-1.4,1.1-2.2,1.4c-0.9,0.3-1.9,0.5-3,0.5c-0.8,0-1.5-0.1-2.2-0.2
			c-0.7-0.1-1.4-0.3-2-0.5c-0.6-0.2-1.1-0.5-1.6-0.7c-0.5-0.2-0.9-0.5-1.3-0.7l1.6-3.5c0.1,0.1,0.4,0.3,0.8,0.5
			c0.4,0.2,0.8,0.5,1.3,0.7s1,0.4,1.5,0.6c0.5,0.2,0.9,0.3,1.3,0.3c0.8,0,1.5-0.2,1.8-0.6c0.4-0.4,0.6-0.9,0.6-1.7s-0.2-1.3-0.7-1.6
			c-0.5-0.4-1.2-0.7-2.1-1.1c-0.9-0.4-1.7-0.7-2.3-1.1s-1.3-0.8-1.7-1.3c-0.5-0.5-0.8-1.1-1.1-1.7c-0.2-0.6-0.4-1.3-0.4-2.2
			c0-0.9,0.2-1.7,0.6-2.4c0.4-0.7,0.9-1.3,1.5-1.8c0.6-0.5,1.3-0.9,2.1-1.2S169.5,13.4,170.4,13.4z"/>
	</g>
	<polyline class="st2" points="144.1,37.6 133.3,39.7 130.4,48.5 138.4,55.5 149.4,53.3 152.2,44.4 144.1,37.6 	"/>
	<polyline class="st2" points="165,42.3 154.3,44.4 151.9,53.5 160.4,60.5 171.3,58.3 173.5,49.2 165,42.3 	"/>
</g>
</svg>
